<svg id="visual" viewBox="0 0 900 450" width="900" height="450" xmlns="http://www.w3.org/2000/svg" xmlns:xlink="http://www.w3.org/1999/xlink" version="1.1"><rect x="0" y="0" width="900" height="450" fill="#ffe3c2"></rect><path d="M0 336L21.5 335.2C43 334.3 86 332.7 128.8 337.2C171.7 341.7 214.3 352.3 257.2 359.7C300 367 343 371 385.8 371.7C428.7 372.3 471.3 369.7 514.2 361.7C557 353.7 600 340.3 642.8 334.8C685.7 329.3 728.3 331.7 771.2 337.3C814 343 857 352 878.5 356.5L900 361L900 451L878.5 451C857 451 814 451 771.2 451C728.3 451 685.7 451 642.8 451C600 451 557 451 514.2 451C471.3 451 428.7 451 385.8 451C343 451 300 451 257.2 451C214.3 451 171.7 451 128.8 451C86 451 43 451 21.5 451L0 451Z" fill="#f3bd5b"></path><path d="M0 400L21.5 395C43 390 86 380 128.8 375.5C171.7 371 214.3 372 257.2 370C300 368 343 363 385.8 365C428.7 367 471.3 376 514.2 382C557 388 600 391 642.8 390C685.7 389 728.3 384 771.2 379C814 374 857 369 878.5 366.5L900 364L900 451L878.5 451C857 451 814 451 771.2 451C728.3 451 685.7 451 642.8 451C600 451 557 451 514.2 451C471.3 451 428.7 451 385.8 451C343 451 300 451 257.2 451C214.3 451 171.7 451 128.8 451C86 451 43 451 21.5 451L0 451Z" fill="#f7b645"></path><path d="M0 417L21.5 412.5C43 408 86 399 128.8 397.3C171.7 395.7 214.3 401.3 257.2 403.8C300 406.3 343 405.7 385.8 402.8C428.7 400 471.3 395 514.2 396.5C557 398 600 406 642.8 406.5C685.7 407 728.3 400 771.2 398.3C814 396.7 857 400.3 878.5 402.2L900 404L900 451L878.5 451C857 451 814 451 771.2 451C728.3 451 685.7 451 642.8 451C600 451 557 451 514.2 451C471.3 451 428.7 451 385.8 451C343 451 300 451 257.2 451C214.3 451 171.7 451 128.8 451C86 451 43 451 21.5 451L0 451Z" fill="#fbae2c"></path><path d="M0 431L21.5 432C43 433 86 435 128.8 433.8C171.7 432.7 214.3 428.3 257.2 424.5C300 420.7 343 417.3 385.8 416.5C428.7 415.7 471.3 417.3 514.2 415.7C557 414 600 409 642.8 408.7C685.7 408.3 728.3 412.7 771.2 417.5C814 422.3 857 427.7 878.5 430.3L900 433L900 451L878.5 451C857 451 814 451 771.2 451C728.3 451 685.7 451 642.8 451C600 451 557 451 514.2 451C471.3 451 428.7 451 385.8 451C343 451 300 451 257.2 451C214.3 451 171.7 451 128.8 451C86 451 43 451 21.5 451L0 451Z" fill="#ffa600"></path></svg>