<svg id="visual" viewBox="0 0 900 600" width="900" height="600" xmlns="http://www.w3.org/2000/svg" xmlns:xlink="http://www.w3.org/1999/xlink" version="1.1"><rect x="0" y="0" width="900" height="600" fill="#ffe3c2"></rect><path d="M0 67L15 68.3C30 69.7 60 72.3 90 80C120 87.7 150 100.3 180 100.5C210 100.7 240 88.3 270 81.3C300 74.3 330 72.7 360 77C390 81.3 420 91.7 450 92.5C480 93.3 510 84.7 540 84.7C570 84.7 600 93.3 630 96.8C660 100.3 690 98.7 720 92.5C750 86.3 780 75.7 810 73.5C840 71.3 870 77.7 885 80.8L900 84L900 0L885 0C870 0 840 0 810 0C780 0 750 0 720 0C690 0 660 0 630 0C600 0 570 0 540 0C510 0 480 0 450 0C420 0 390 0 360 0C330 0 300 0 270 0C240 0 210 0 180 0C150 0 120 0 90 0C60 0 30 0 15 0L0 0Z" fill="#F7BEB0" stroke-linecap="round" stroke-linejoin="miter"></path></svg>