<svg id="visual" viewBox="0 0 900 400" width="900" height="400" xmlns="http://www.w3.org/2000/svg" xmlns:xlink="http://www.w3.org/1999/xlink" version="1.1"><rect x="0" y="0" width="900" height="400" fill="#ffe3c2"></rect><path d="M0 275L21.5 287.3C43 299.7 86 324.3 128.8 333.2C171.7 342 214.3 335 257.2 327.3C300 319.7 343 311.3 385.8 306.3C428.7 301.3 471.3 299.7 514.2 291.5C557 283.3 600 268.7 642.8 274.8C685.7 281 728.3 308 771.2 312.3C814 316.7 857 298.3 878.5 289.2L900 280L900 401L878.5 401C857 401 814 401 771.2 401C728.3 401 685.7 401 642.8 401C600 401 557 401 514.2 401C471.3 401 428.7 401 385.8 401C343 401 300 401 257.2 401C214.3 401 171.7 401 128.8 401C86 401 43 401 21.5 401L0 401Z" fill="#F7BEB0" stroke-linecap="round" stroke-linejoin="miter"></path></svg>