<svg id="visual" viewBox="0 0 900 450" width="900" height="450" xmlns="http://www.w3.org/2000/svg" xmlns:xlink="http://www.w3.org/1999/xlink" version="1.1"><rect x="0" y="0" width="900" height="450" fill="#ffe3c2"></rect><path d="M0 118L37.5 114.7C75 111.3 150 104.7 225 102.7C300 100.7 375 103.3 450 110.7C525 118 600 130 675 138C750 146 825 150 862.5 152L900 154L900 0L862.5 0C825 0 750 0 675 0C600 0 525 0 450 0C375 0 300 0 225 0C150 0 75 0 37.5 0L0 0Z" fill="#ffa600"></path><path d="M0 107L37.5 101C75 95 150 83 225 72.7C300 62.3 375 53.7 450 46.8C525 40 600 35 675 46.5C750 58 825 86 862.5 100L900 114L900 0L862.5 0C825 0 750 0 675 0C600 0 525 0 450 0C375 0 300 0 225 0C150 0 75 0 37.5 0L0 0Z" fill="#ff8a65"></path><path d="M0 72L37.5 62.2C75 52.3 150 32.7 225 27.8C300 23 375 33 450 43.3C525 53.7 600 64.3 675 61.5C750 58.7 825 42.3 862.5 34.2L900 26L900 0L862.5 0C825 0 750 0 675 0C600 0 525 0 450 0C375 0 300 0 225 0C150 0 75 0 37.5 0L0 0Z" fill="#ec8697"></path></svg>